<svg width="24" height="24" viewBox="0 0 24 24" fill="none" xmlns="http://www.w3.org/2000/svg">
<g filter="url(#filter0_i)">
<path d="M21.75 18.75H11.25L5.25 23.25V18.75H2.25C1.85218 18.75 1.47064 18.592 1.18934 18.3107C0.908035 18.0294 0.75 17.6478 0.75 17.25V2.25C0.75 1.85218 0.908035 1.47064 1.18934 1.18934C1.47064 0.908035 1.85218 0.75 2.25 0.75H21.75C22.1478 0.75 22.5294 0.908035 22.8107 1.18934C23.092 1.47064 23.25 1.85218 23.25 2.25V17.25C23.25 17.6478 23.092 18.0294 22.8107 18.3107C22.5294 18.592 22.1478 18.75 21.75 18.75Z" fill="white"/>
</g>
<path d="M21.75 18.75H11.25L5.25 23.25V18.75H2.25C1.85218 18.75 1.47064 18.592 1.18934 18.3107C0.908035 18.0294 0.75 17.6478 0.75 17.25V2.25C0.75 1.85218 0.908035 1.47064 1.18934 1.18934C1.47064 0.908035 1.85218 0.75 2.25 0.75H21.75C22.1478 0.75 22.5294 0.908035 22.8107 1.18934C23.092 1.47064 23.25 1.85218 23.25 2.25V17.25C23.25 17.6478 23.092 18.0294 22.8107 18.3107C22.5294 18.592 22.1478 18.75 21.75 18.75Z" stroke="#375BD2" stroke-width="1.5" stroke-linecap="round" stroke-linejoin="round"/>
<path d="M9 6.75004C9.00011 6.20007 9.15139 5.66071 9.43732 5.19091C9.72325 4.72111 10.1328 4.33895 10.6213 4.08619C11.1097 3.83344 11.6583 3.71982 12.2069 3.75776C12.7556 3.79569 13.2833 3.98372 13.7323 4.30129C14.1813 4.61886 14.5344 5.05375 14.7529 5.55843C14.9715 6.06311 15.0471 6.61816 14.9715 7.16291C14.8959 7.70766 14.6721 8.22116 14.3244 8.64727C13.9767 9.07338 13.5185 9.39571 13 9.57904C12.7074 9.68248 12.4541 9.87412 12.275 10.1275C12.0959 10.381 11.9998 10.6837 12 10.994V11.25" stroke="#375BD2" stroke-width="1.5" stroke-linecap="round" stroke-linejoin="round"/>
<path d="M12 14.25C11.9258 14.25 11.8533 14.272 11.7917 14.3132C11.73 14.3544 11.6819 14.413 11.6535 14.4815C11.6252 14.55 11.6177 14.6254 11.6322 14.6982C11.6467 14.7709 11.6824 14.8377 11.7348 14.8902C11.7873 14.9426 11.8541 14.9783 11.9268 14.9928C11.9996 15.0073 12.075 14.9998 12.1435 14.9715C12.212 14.9431 12.2706 14.895 12.3118 14.8333C12.353 14.7717 12.375 14.6992 12.375 14.625C12.375 14.5255 12.3355 14.4302 12.2652 14.3598C12.1948 14.2895 12.0995 14.25 12 14.25Z" fill="#375BD2" stroke="#375BD2" stroke-width="1.5" stroke-linecap="round" stroke-linejoin="round"/>
<defs>
<filter id="filter0_i" x="0" y="0" width="24" height="24" filterUnits="userSpaceOnUse" color-interpolation-filters="sRGB">
<feFlood flood-opacity="0" result="BackgroundImageFix"/>
<feBlend mode="normal" in="SourceGraphic" in2="BackgroundImageFix" result="shape"/>
<feColorMatrix in="SourceAlpha" type="matrix" values="0 0 0 0 0 0 0 0 0 0 0 0 0 0 0 0 0 0 127 0" result="hardAlpha"/>
<feOffset dx="-3" dy="1"/>
<feComposite in2="hardAlpha" operator="arithmetic" k2="-1" k3="1"/>
<feColorMatrix type="matrix" values="0 0 0 0 0.87451 0 0 0 0 0.905882 0 0 0 0 0.984314 0 0 0 1 0"/>
<feBlend mode="normal" in2="shape" result="effect1_innerShadow"/>
</filter>
</defs>
</svg>
